<svg xmlns="http://www.w3.org/2000/svg" width="259.365" height="193.424" viewBox="0 0 259.365 193.424">
  <path id="Path_70" data-name="Path 70" d="M27.3-47.432v9.492H19.98V0H7.646V-37.939H.352v-9.492Zm2.813,0H50.684v9.492H42.451v8.994h7.705v9.023H42.451v10.43H51.5V0H30.117Zm49.922,0L75.732-26.455,82.236,0H70.811a155.463,155.463,0,0,1-3.75-17.256q-.469,4.482-1.289,9.521L64.6,0H52.588l4.453-26.455L52.588-47.432H64.512q.322,1.963,1.289,6.533.762,3.486,1.26,6.387L69.7-47.432Zm28.8,0v9.492h-7.324V0H89.18V-37.939H81.885v-9.492Zm39.668,0-8.994,30.264V0H128.086V-17.168l-8.672-30.264h11.338q2.666,13.857,2.988,18.662,1.025-7.588,3.428-18.662ZM178.8-19.658q0,7.148-.337,10.122A11.341,11.341,0,0,1,176.353-4.1a11.361,11.361,0,0,1-4.79,3.779A17.437,17.437,0,0,1,164.531,1,17.867,17.867,0,0,1,157.69-.249a11.249,11.249,0,0,1-4.878-3.735,11.227,11.227,0,0,1-2.2-5.42,100.151,100.151,0,0,1-.352-10.254v-8.115q0-7.148.337-10.122a11.341,11.341,0,0,1,2.109-5.435,11.361,11.361,0,0,1,4.79-3.779,17.437,17.437,0,0,1,7.031-1.318,17.867,17.867,0,0,1,6.841,1.245,11.249,11.249,0,0,1,4.878,3.735,11.227,11.227,0,0,1,2.2,5.42,100.151,100.151,0,0,1,.352,10.254ZM166.465-35.244a14.7,14.7,0,0,0-.366-4.233,1.458,1.458,0,0,0-1.509-.923,1.684,1.684,0,0,0-1.479.747q-.513.747-.513,4.409V-13.1a21.779,21.779,0,0,0,.337,5.1,1.469,1.469,0,0,0,1.567.967,1.517,1.517,0,0,0,1.611-1.113,23.465,23.465,0,0,0,.352-5.3Zm44.971-12.187v31.7a55.011,55.011,0,0,1-.352,7.573A10.279,10.279,0,0,1,209-3.677,10.794,10.794,0,0,1,204.448-.19,17.145,17.145,0,0,1,197.783,1a18.75,18.75,0,0,1-7.5-1.406,11.288,11.288,0,0,1-4.863-3.662,10.143,10.143,0,0,1-1.9-4.761q-.293-2.5-.293-10.532V-47.432h12.334v35.566a14.029,14.029,0,0,0,.337,3.97,1.321,1.321,0,0,0,1.362.864,1.426,1.426,0,0,0,1.509-.952,17.728,17.728,0,0,0,.337-4.5V-47.432Zm4.775,0h8.73q8.73,0,11.821.674a8.137,8.137,0,0,1,5.039,3.442q1.948,2.769,1.948,8.833,0,5.537-1.377,7.441t-5.42,2.285q3.662.908,4.922,2.432a7.262,7.262,0,0,1,1.567,2.8,44.188,44.188,0,0,1,.308,7.017V0H232.295V-15.762q0-3.809-.6-4.717t-3.149-.908V0H216.211Zm12.334,8.115V-28.77a5.428,5.428,0,0,0,2.915-.571q.835-.571.835-3.706v-2.607q0-2.256-.806-2.959A4.583,4.583,0,0,0,228.545-39.316ZM48.867,24.568,43.389,72H27.979q-2.109-10.928-3.721-24.844Q23.525,53.1,20.83,72H5.508L0,24.568H11.982l1.26,16.553,1.289,15.967q.674-12.393,3.4-32.52H30.762q.264,2.08,1.348,15.645L33.457,58.23q1.025-17.2,3.428-33.662Zm23.174,0L79.1,72H66.475l-.615-8.525H61.436L60.7,72H47.93L54.2,24.568Zm-6.533,30.5q-.937-8.057-1.875-19.893-1.875,13.594-2.344,19.893Zm38.379-30.5L94.893,54.832V72H83.467V54.832L74.795,24.568H86.133Q88.8,38.426,89.121,43.23q1.025-7.588,3.428-18.662Zm37.529,0v9.492h-7.324V72H121.758V34.061h-7.295V24.568Zm31,27.773q0,7.148-.337,10.122a11.335,11.335,0,0,1-6.9,9.214A17.437,17.437,0,0,1,158.145,73a17.867,17.867,0,0,1-6.841-1.245,11.4,11.4,0,0,1-7.075-9.155,100.151,100.151,0,0,1-.352-10.254V44.227q0-7.148.337-10.122a11.335,11.335,0,0,1,6.9-9.214,17.437,17.437,0,0,1,7.031-1.318,17.867,17.867,0,0,1,6.841,1.245,11.4,11.4,0,0,1,7.075,9.155,100.151,100.151,0,0,1,.352,10.254ZM160.078,36.756a14.7,14.7,0,0,0-.366-4.233A1.458,1.458,0,0,0,158.2,31.6a1.684,1.684,0,0,0-1.479.747q-.513.747-.513,4.409V58.9a21.779,21.779,0,0,0,.337,5.1,1.469,1.469,0,0,0,1.567.967,1.517,1.517,0,0,0,1.611-1.113,23.465,23.465,0,0,0,.352-5.3ZM30.82,96.568V144H18.486V124.078H14.795V144H2.461V96.568H14.795v16.963h3.691V96.568Zm26.25,0L64.131,144H51.5l-.615-8.525H46.465L45.732,144H32.959l6.27-47.432Zm-6.533,30.5q-.937-8.057-1.875-19.893-1.875,13.594-2.344,19.893Zm15.7-30.5H78.662a29.164,29.164,0,0,1,7.749.791,8.66,8.66,0,0,1,4.072,2.285,7.846,7.846,0,0,1,1.846,3.618,32.4,32.4,0,0,1,.483,6.577v4.131a17.208,17.208,0,0,1-.937,6.621,6.417,6.417,0,0,1-3.442,3.193,16.284,16.284,0,0,1-6.548,1.113H78.574V144H66.24Zm12.334,8.115v12.07q.527.029.908.029a2.852,2.852,0,0,0,2.358-.835q.659-.835.659-3.472v-3.9q0-2.432-.762-3.164T78.574,104.684Zm17.783-8.115h12.422a29.164,29.164,0,0,1,7.749.791,8.66,8.66,0,0,1,4.072,2.285,7.846,7.846,0,0,1,1.846,3.618,32.4,32.4,0,0,1,.483,6.577v4.131a17.208,17.208,0,0,1-.937,6.621,6.417,6.417,0,0,1-3.442,3.193A16.284,16.284,0,0,1,112,124.9h-3.311V144H96.357Zm12.334,8.115v12.07q.527.029.908.029a2.852,2.852,0,0,0,2.358-.835q.659-.835.659-3.472v-3.9q0-2.432-.762-3.164T108.691,104.684Zm30.117-8.115V144H126.475V96.568Zm32.49,0V144H160.488l-6.416-21.562V144H143.76V96.568h10.313l6.914,21.357V96.568Zm4.951,0h20.566v9.492h-8.232v8.994h7.705v9.023h-7.705v10.43h9.053V144H176.25Zm51.064,14.355H215.859v-3.516a6.9,6.9,0,0,0-.439-3.135,1.616,1.616,0,0,0-1.465-.674,1.865,1.865,0,0,0-1.685.908,5.265,5.265,0,0,0-.571,2.754,7.78,7.78,0,0,0,.645,3.574q.615,1.2,3.486,2.9,8.232,4.893,10.371,8.027t2.139,10.107q0,5.068-1.187,7.471a9.3,9.3,0,0,1-4.585,4.028,18.135,18.135,0,0,1-7.91,1.626,17.686,17.686,0,0,1-8.452-1.875,9.2,9.2,0,0,1-4.585-4.775,24.481,24.481,0,0,1-1.084-8.232v-3.105h11.455v5.771a7.6,7.6,0,0,0,.483,3.428,1.87,1.87,0,0,0,1.714.762,2.008,2.008,0,0,0,1.831-.967,5.516,5.516,0,0,0,.6-2.871q0-4.189-1.143-5.479a36.42,36.42,0,0,0-5.771-4.307,56.777,56.777,0,0,1-6.094-4.424,10.35,10.35,0,0,1-2.476-3.809,16.76,16.76,0,0,1-.981-6.211q0-5.449,1.392-7.969a9.365,9.365,0,0,1,4.5-3.94,17.938,17.938,0,0,1,7.5-1.421,19.54,19.54,0,0,1,8.188,1.553,8.573,8.573,0,0,1,4.482,3.911q1.1,2.358,1.1,8.013Zm31.025,0H246.885v-3.516a6.9,6.9,0,0,0-.439-3.135,1.616,1.616,0,0,0-1.465-.674,1.865,1.865,0,0,0-1.685.908,5.265,5.265,0,0,0-.571,2.754,7.78,7.78,0,0,0,.645,3.574q.615,1.2,3.486,2.9,8.232,4.893,10.371,8.027t2.139,10.107q0,5.068-1.187,7.471a9.3,9.3,0,0,1-4.585,4.028,18.135,18.135,0,0,1-7.91,1.626,17.686,17.686,0,0,1-8.452-1.875,9.2,9.2,0,0,1-4.585-4.775,24.481,24.481,0,0,1-1.084-8.232v-3.105h11.455v5.771a7.6,7.6,0,0,0,.483,3.428,1.87,1.87,0,0,0,1.714.762,2.008,2.008,0,0,0,1.831-.967,5.516,5.516,0,0,0,.6-2.871q0-4.189-1.143-5.479a36.42,36.42,0,0,0-5.771-4.307,56.777,56.777,0,0,1-6.094-4.424,10.35,10.35,0,0,1-2.476-3.809,16.76,16.76,0,0,1-.981-6.211q0-5.449,1.392-7.969a9.365,9.365,0,0,1,4.5-3.94,17.938,17.938,0,0,1,7.5-1.421,19.54,19.54,0,0,1,8.188,1.553,8.573,8.573,0,0,1,4.482,3.911q1.1,2.358,1.1,8.013Z" transform="translate(0 48.428)" fill="#fff"/>
</svg>
